<svg xmlns="http://www.w3.org/2000/svg" width="34" height="34" viewBox="0 0 34 34">
  <defs>
    <style>
      .cls-1, .cls-4, .cls-6 {
        fill: none;
      }

      .cls-1, .cls-2, .cls-4 {
        stroke: #fff;
        stroke-width: 2px;
      }

      .cls-2, .cls-3, .cls-7 {
        fill: #fff;
      }

      .cls-4 {
        stroke-linecap: round;
        stroke-linejoin: round;
      }

      .cls-5, .cls-7 {
        stroke: none;
      }
    </style>
  </defs>
  <g id="bag_icon" transform="translate(1 1)">
    <g id="Grupo_1" data-name="Grupo 1" transform="translate(8.2)">
      <path id="Caminho_6" data-name="Caminho 6" class="cls-1" d="M1756.3,53.081s-.4-17.524,5.7-17.524,5.885,17.524,5.885,17.524" transform="translate(-1754.2 -35.557)"/>
      <g id="Elipse_5" data-name="Elipse 5" class="cls-2" transform="translate(0 16.04)">
        <circle class="cls-5" cx="2" cy="2" r="2"/>
        <circle class="cls-6" cx="2" cy="2" r="1"/>
      </g>
      <g id="Caminho_7" data-name="Caminho 7" class="cls-3" transform="translate(11.8 16.04)">
        <path class="cls-5" d="M 2 3 C 1.448600053787231 3 1 2.551399946212769 1 2 C 1 1.448600053787231 1.448600053787231 1 2 1 C 2.551399946212769 1 3 1.448600053787231 3 2 C 3 2.551399946212769 2.551399946212769 3 2 3 Z"/>
        <path class="cls-7" d="M 2 0 C 3.104569911956787 0 4 0.8954300880432129 4 2 C 4 3.104569911956787 3.104569911956787 4 2 4 C 0.8954300880432129 4 0 3.104569911956787 0 2 C 0 0.8954300880432129 0.8954300880432129 0 2 0 Z"/>
      </g>
    </g>
    <path id="Retângulo_4" data-name="Retângulo 4" class="cls-4" d="M0,0H32a0,0,0,0,1,0,0V14.96a5,5,0,0,1-5,5H5a5,5,0,0,1-5-5V0A0,0,0,0,1,0,0Z" transform="translate(0 12.04)"/>
  </g>
</svg>
