<svg xmlns="http://www.w3.org/2000/svg" width="33.999" height="33.999" viewBox="0 0 33.999 33.999">
  <defs>
    <style>
      .cls-1, .cls-4, .cls-6 {
        fill: none;
      }

      .cls-1, .cls-2, .cls-4 {
        stroke: #191919;
        stroke-width: 2px;
      }

      .cls-2, .cls-3, .cls-7 {
        fill: #191919;
      }

      .cls-4 {
        stroke-linecap: round;
        stroke-linejoin: round;
      }

      .cls-5, .cls-7 {
        stroke: none;
      }
    </style>
  </defs>
  <g id="bag_icon" transform="translate(1.001 1)">
    <g id="Grupo_1" data-name="Grupo 1" transform="translate(8.2)">
      <path id="Caminho_6" data-name="Caminho 6" class="cls-1" d="M1756.3,53.081s-.4-17.524,5.7-17.524,5.885,17.524,5.885,17.524" transform="translate(-1754.2 -35.557)"/>
      <g id="Elipse_5" data-name="Elipse 5" class="cls-2" transform="translate(0 16.04)">
        <circle class="cls-5" cx="2" cy="2" r="2"/>
        <circle class="cls-6" cx="2" cy="2" r="1"/>
      </g>
      <g id="Caminho_7" data-name="Caminho 7" class="cls-3" transform="translate(11.8 16.04)">
        <path class="cls-5" d="M 1.999961853027344 2.999921798706055 C 1.44858181476593 2.999921798706055 1.000001907348633 2.551341772079468 1.000001907348633 1.999961853027344 C 1.000001907348633 1.44858181476593 1.44858181476593 1.000001907348633 1.999961853027344 1.000001907348633 C 2.551341772079468 1.000001907348633 2.999921798706055 1.44858181476593 2.999921798706055 1.999961853027344 C 2.999921798706055 2.551341772079468 2.551341772079468 2.999921798706055 1.999961853027344 2.999921798706055 Z"/>
        <path class="cls-7" d="M 1.999961853027344 1.9073486328125e-06 C 3.104511737823486 1.9073486328125e-06 3.999921798706055 0.8954119682312012 3.999921798706055 1.999961853027344 C 3.999921798706055 3.104511737823486 3.104511737823486 3.999921798706055 1.999961853027344 3.999921798706055 C 0.8954119682312012 3.999921798706055 1.9073486328125e-06 3.104511737823486 1.9073486328125e-06 1.999961853027344 C 1.9073486328125e-06 0.8954119682312012 0.8954119682312012 1.9073486328125e-06 1.999961853027344 1.9073486328125e-06 Z"/>
      </g>
    </g>
    <path id="Retângulo_4" data-name="Retângulo 4" class="cls-4" d="M0,0H32a0,0,0,0,1,0,0V14.96a5,5,0,0,1-5,5H5a5,5,0,0,1-5-5V0A0,0,0,0,1,0,0Z" transform="translate(0 12.04)"/>
  </g>
</svg>
