<svg xmlns="http://www.w3.org/2000/svg" width="36.528" height="36.528" viewBox="0 0 36.528 36.528">
  <defs>
    <style>
      .cls-1 {
        fill: #fff;
      }

      .cls-2, .cls-3 {
        stroke: none;
      }

      .cls-3 {
        fill: #191919;
      }
    </style>
  </defs>
  <g id="person_icon" class="cls-1" transform="translate(0)">
    <path class="cls-2" d="M 35.50001525878906 35.52830123901367 L 1.028286576271057 35.52830123901367 C 1.268585801124573 31.29285049438477 3.032639265060425 27.34446334838867 6.056610584259033 24.32039070129395 C 9.317350387573242 21.05953979492188 13.65258026123047 19.26370048522949 18.26370048522949 19.26370048522949 C 22.87520980834961 19.26370048522949 27.21073150634766 21.05953979492188 30.47159004211426 24.32040977478027 C 33.4956169128418 27.34442901611328 35.25970840454102 31.29281997680664 35.50001525878906 35.52830123901367 Z M 18.83520126342773 16.12250137329102 C 14.6656608581543 16.12250137329102 11.27350044250488 12.7303409576416 11.27350044250488 8.560800552368164 C 11.27350044250488 4.39176082611084 14.6656608581543 1.000000596046448 18.83520126342773 1.000000596046448 C 23.00424003601074 1.000000596046448 26.39599990844727 4.39176082611084 26.39599990844727 8.560800552368164 C 26.39599990844727 12.7303409576416 23.00424003601074 16.12250137329102 18.83520126342773 16.12250137329102 Z"/>
    <path class="cls-3" d="M 34.40735244750977 34.52830123901367 C 33.97030258178711 30.94110679626465 32.36004638671875 27.62307357788086 29.76449012756348 25.02750968933105 C 26.69249153137207 21.95552062988281 22.60810089111328 20.26370048522949 18.26370048522949 20.26370048522949 C 13.91970062255859 20.26370048522949 9.835600852966309 21.95551109313965 6.763730525970459 25.02749061584473 C 4.168218612670898 27.62308692932129 2.557990074157715 30.94112205505371 2.120948076248169 34.52830123901367 L 34.40735244750977 34.52830123901367 M 18.83520126342773 15.1225004196167 C 22.45284080505371 15.1225004196167 25.39599990844727 12.17893028259277 25.39599990844727 8.560800552368164 C 25.39599990844727 4.943160533905029 22.45284080505371 2.000000715255737 18.83520126342773 2.000000715255737 C 15.21707057952881 2.000000715255737 12.27350044250488 4.943160533905029 12.27350044250488 8.560800552368164 C 12.27350044250488 12.17893028259277 15.21707057952881 15.1225004196167 18.83520126342773 15.1225004196167 M 36.52830123901367 36.52830123901367 L 6.195068635861389e-07 36.52830123901367 C 6.195068635861389e-07 26.44110107421875 8.177400588989258 18.26370048522949 18.26370048522949 18.26370048522949 C 28.35090065002441 18.26370048522949 36.52830123901367 26.44110107421875 36.52830123901367 36.52830123901367 Z M 18.83520126342773 17.12250137329102 C 14.10660076141357 17.12250137329102 10.27350044250488 13.28940105438232 10.27350044250488 8.560800552368164 C 10.27350044250488 3.833100557327271 14.10660076141357 6.195068635861389e-07 18.83520126342773 6.195068635861389e-07 C 23.56290054321289 6.195068635861389e-07 27.39599990844727 3.833100557327271 27.39599990844727 8.560800552368164 C 27.39599990844727 13.28940105438232 23.56290054321289 17.12250137329102 18.83520126342773 17.12250137329102 Z"/>
  </g>
</svg>
